<?xml version="1.0" encoding="UTF-8"?>
<svg id="Camada_2" data-name="Camada 2" xmlns="http://www.w3.org/2000/svg" viewBox="0 0 408.24 90.58">
  <defs>
    <style>
      .cls-1 {
        fill-rule: evenodd;
      }

      .cls-1, .cls-2 {
        fill: #fff;
        stroke-width: 0px;
      }
    </style>
  </defs>
  <g id="Camada_1-2" data-name="Camada 1">
    <g>
      <g>
        <path class="cls-1" d="M180.96,53.54V18h-7.06v35.95c0,7.09,5.8,12.9,12.9,12.9h.3v-6.99c-3.4-.1-6.14-2.9-6.14-6.32Z"/>
        <path class="cls-1" d="M201.37,53.54V18h-7.06v35.95c0,7.09,5.8,12.9,12.9,12.9h.3v-6.99c-3.4-.1-6.14-2.9-6.14-6.32Z"/>
        <path class="cls-1" d="M146.73,28.38c-9.82,0-18.13,7.33-19.34,17.07-.1.8-.15,1.61-.15,2.41s.05,1.61.15,2.41c1.21,9.74,9.51,17.07,19.34,17.07,5.18,0,10.11-2.04,13.78-5.71l.91-.91-5.01-5.01-.91.91c-2.33,2.33-5.47,3.63-8.77,3.63-5.53,0-10.34-3.66-11.88-8.85h31.08l.14-1.13c.1-.8.15-1.61.15-2.41s-.05-1.61-.15-2.41c-1.2-9.74-9.51-17.07-19.34-17.07ZM134.85,44.32c1.54-5.19,6.35-8.85,11.88-8.85s10.34,3.66,11.88,8.85h-23.77Z"/>
        <path class="cls-1" d="M301.09,29.13c-4.94,0-9.54,2.27-12.57,6.06-3.04-3.79-7.64-6.06-12.57-6.06-8.87,0-16.12,7.25-16.12,16.12v21.61h7.09v-21.61c0-4.96,4.07-9.03,9.03-9.03s9.03,4.06,9.03,9.03v21.61h7.09v-21.61c0-4.96,4.07-9.03,9.03-9.03s9.03,4.06,9.03,9.03v21.61h7.09v-21.61c0-8.87-7.25-16.12-16.12-16.12Z"/>
        <path class="cls-1" d="M112.6,32.95c-2.77-2.29-6.19-3.83-9.98-4.3-.8-.1-1.61-.15-2.41-.15s-1.61.05-2.41.15c-9.74,1.2-17.07,9.51-17.07,19.34s7.33,18.13,17.07,19.34c.8.1,1.61.15,2.41.15s1.61-.05,2.41-.15c9.74-1.2,17.07-9.51,17.07-19.34v-30.11h-7.09v15.07ZM102.25,60.21c-.68.11-1.36.17-2.05.17s-1.37-.06-2.04-.17l-.16-.03c-5.88-1.06-10.19-6.2-10.19-12.2s4.38-11.24,10.35-12.23c.68-.11,1.36-.17,2.04-.17s1.37.06,2.04.17l.15.03c5.89,1.05,10.2,6.2,10.2,12.2s-4.38,11.24-10.35,12.23Z"/>
        <path class="cls-1" d="M343.44,28.38c-9.82,0-18.13,7.33-19.34,17.07-.1.8-.15,1.61-.15,2.41s.05,1.61.15,2.41c1.21,9.74,9.51,17.07,19.34,17.07,5.18,0,10.11-2.04,13.78-5.71l.91-.91-5.01-5.01-.91.91c-2.33,2.33-5.47,3.63-8.77,3.63-5.53,0-10.34-3.66-11.88-8.85h31.08l.14-1.13c.1-.8.15-1.61.15-2.41s-.05-1.61-.15-2.41c-1.2-9.74-9.51-17.07-19.34-17.07ZM331.56,44.32c1.54-5.19,6.35-8.85,11.88-8.85s10.34,3.66,11.88,8.85h-23.77Z"/>
        <path class="cls-1" d="M401.15,17.88v15.07c-2.77-2.29-6.19-3.83-9.98-4.3-.8-.1-1.61-.15-2.41-.15s-1.61.05-2.41.15c-9.74,1.2-17.07,9.51-17.07,19.34s7.33,18.13,17.07,19.34c.8.1,1.61.15,2.41.15s1.61-.05,2.41-.15c9.74-1.2,17.07-9.51,17.07-19.34v-30.11h-7.09ZM390.8,60.21c-.68.11-1.36.17-2.05.17s-1.37-.06-2.04-.17l-.16-.03c-5.88-1.06-10.19-6.2-10.19-12.2s4.38-11.24,10.35-12.23c.68-.11,1.36-.17,2.04-.17s1.37.06,2.04.17l.15.03c5.89,1.05,10.2,6.2,10.2,12.2s-4.38,11.24-10.35,12.23Z"/>
        <path class="cls-1" d="M234.86,28.65c-.8-.1-1.61-.15-2.41-.15s-1.61.05-2.41.15c-9.74,1.2-17.07,9.51-17.07,19.34s7.33,18.13,17.07,19.34c.8.1,1.61.15,2.41.15s1.61-.05,2.41-.15c3.79-.47,7.21-2.01,9.98-4.3v3.82h7.09v-18.86c0-9.82-7.33-18.13-17.07-19.34ZM234.49,60.21c-.68.11-1.36.17-2.05.17s-1.37-.06-2.04-.17l-.16-.03c-5.88-1.06-10.19-6.2-10.19-12.2s4.38-11.24,10.35-12.23c.68-.11,1.36-.17,2.04-.17s1.37.06,2.04.17l.15.03c5.89,1.05,10.2,6.2,10.2,12.2s-4.38,11.24-10.35,12.23Z"/>
      </g>
      <g>
        <path class="cls-2" d="M148.63,88.12v-1.44h.08c.72.32,1.67.49,2.39.49.41,0,.9-.05.9-.39,0-.29-.38-.48-.91-.64-1.44-.44-2.51-.8-2.51-2.09,0-1.2.96-1.88,2.66-1.88.64,0,1.55.1,2.26.32v1.4h-.06c-.82-.25-1.59-.36-2.11-.36s-.85.1-.85.4c0,.37.52.56,1.14.75,1.4.42,2.27.81,2.27,2,0,1.53-1.41,1.85-2.83,1.85-.76,0-1.64-.1-2.41-.41Z"/>
        <path class="cls-2" d="M155.2,86.59c0-1.14.75-1.88,2.16-2.02.49-.05,1.34-.05,1.91-.05v-.14c0-.69-.61-.83-1.27-.83-.54,0-1.25.1-1.93.3h-.08v-1.34c.68-.22,1.54-.33,2.3-.33,1.77,0,2.91.64,2.91,2.16v4.02h-1.35l-.21-.62c-.57.45-1.35.79-2.26.79-1.25,0-2.21-.66-2.21-1.94ZM158,87.22c.43,0,.9-.17,1.28-.46v-1.15c-.46,0-.87.01-1.17.05-.63.08-.94.29-.94.8s.3.76.83.76Z"/>
        <path class="cls-2" d="M162.97,86.22v-3.88h1.95v3.58c0,.84.32,1.18,1,1.18s1-.33,1-1.18v-3.58h1.95v3.88c0,1.61-1.09,2.3-2.94,2.3s-2.94-.69-2.94-2.3ZM166.4,81.28c.71-.71,1.21-1.27,1.63-1.8v-.14h-1.92l-1.24,1.81v.13h1.53Z"/>
        <path class="cls-2" d="M170.42,85.44c0-1.97,1.1-3.28,2.93-3.28.54,0,1.04.12,1.46.29-.03-.38-.04-.76-.04-1.07v-1.45h1.95v8.42h-1.63l-.15-.57c-.52.49-1.21.75-1.95.75-1.66,0-2.56-1.33-2.56-3.08ZM173.64,87.15c.47,0,.83-.16,1.12-.42v-2.95c-.29-.13-.62-.21-.96-.21-1.14,0-1.42.81-1.42,1.86s.26,1.72,1.25,1.72Z"/>
        <path class="cls-2" d="M178.4,85.37c0-1.92,1.11-3.2,3.19-3.2,1.89,0,2.96,1.07,2.96,2.89v.84h-4.3c0,1.05.86,1.23,1.88,1.23.68,0,1.41-.09,2.07-.29h.08v1.3c-.8.26-1.73.39-2.47.39-2.32,0-3.42-1.25-3.42-3.16ZM182.82,84.69c0-.71-.41-1.18-1.25-1.18s-1.29.47-1.29,1.18h2.54Z"/>
        <path class="cls-2" d="M189.61,85.37c0-1.92,1.11-3.2,3.19-3.2,1.89,0,2.96,1.07,2.96,2.89v.84h-4.3c0,1.05.86,1.23,1.88,1.23.68,0,1.41-.09,2.07-.29h.08v1.3c-.8.26-1.73.39-2.47.39-2.32,0-3.42-1.25-3.42-3.16ZM194.03,84.69c0-.71-.41-1.18-1.25-1.18s-1.29.47-1.29,1.18h2.54Z"/>
        <path class="cls-2" d="M201.12,88.13v-8.19h1.95v1.84c0,.26-.01.53-.03.82.63-.29,1.28-.43,1.84-.43,1.69,0,2.54,1.3,2.54,3,0,1.95-1.1,3.36-3.5,3.36-.7,0-1.78-.12-2.8-.4ZM204.06,87.14c1.13,0,1.38-.84,1.38-1.96,0-.92-.16-1.57-1.11-1.57-.44,0-.89.14-1.27.39v2.96c.4.12.71.17,1,.17Z"/>
        <path class="cls-2" d="M208.77,85.37c0-1.92,1.11-3.2,3.19-3.2,1.89,0,2.96,1.07,2.96,2.89v.84h-4.3c0,1.05.86,1.23,1.88,1.23.68,0,1.41-.09,2.07-.29h.08v1.3c-.8.26-1.73.39-2.47.39-2.32,0-3.42-1.25-3.42-3.16ZM213.2,84.69c0-.71-.41-1.18-1.25-1.18s-1.29.47-1.29,1.18h2.54Z"/>
        <path class="cls-2" d="M216.6,82.34h1.4l.15.59c.5-.49,1.14-.77,1.96-.77s1.54.29,1.96.83c.49-.52,1.15-.83,2.02-.83,1.43,0,2.4.83,2.4,2.27v3.92h-1.95v-3.53c0-.79-.3-1.18-1.06-1.18-.42,0-.76.12-1.01.34.02.14.03.29.03.45v3.92h-1.95v-3.53c0-.79-.3-1.18-1.06-1.18-.39,0-.7.1-.95.28v4.42h-1.95v-6.01Z"/>
        <path class="cls-2" d="M228.56,85.99v-1.58h4.13v1.58h-4.13Z"/>
        <path class="cls-2" d="M234.55,85.37c0-1.92,1.11-3.2,3.19-3.2,1.89,0,2.96,1.07,2.96,2.89v.84h-4.29c0,1.05.85,1.23,1.88,1.23.68,0,1.41-.09,2.07-.29h.08v1.3c-.8.26-1.73.39-2.47.39-2.32,0-3.42-1.25-3.42-3.16ZM238.98,84.69c0-.71-.41-1.18-1.25-1.18s-1.29.47-1.29,1.18h2.54Z"/>
        <path class="cls-2" d="M242.23,88.12v-1.44h.08c.72.32,1.67.49,2.39.49.41,0,.9-.05.9-.39,0-.29-.38-.48-.91-.64-1.44-.44-2.51-.8-2.51-2.09,0-1.2.96-1.88,2.66-1.88.64,0,1.55.1,2.26.32v1.4h-.06c-.82-.25-1.59-.36-2.11-.36s-.85.1-.85.4c0,.37.52.56,1.14.75,1.4.42,2.27.81,2.27,2,0,1.53-1.41,1.85-2.83,1.85-.76,0-1.64-.1-2.41-.41Z"/>
        <path class="cls-2" d="M249.69,86.33v-2.68h-1.04v-1.05l1.04-.26.43-1.74h1.51v1.74h1.63v1.31h-1.63v2.37c0,.84.24,1.05.91,1.05.33,0,.69-.05,1.01-.12h.05v1.41c-.57.11-1.14.17-1.66.17-1.64,0-2.26-.65-2.26-2.2Z"/>
        <path class="cls-2" d="M254.97,86.59c0-1.14.75-1.88,2.16-2.02.49-.05,1.34-.05,1.91-.05v-.14c0-.69-.61-.83-1.27-.83-.54,0-1.25.1-1.93.3h-.08v-1.34c.68-.22,1.54-.33,2.3-.33,1.77,0,2.91.64,2.91,2.16v4.02h-1.35l-.21-.62c-.57.45-1.35.79-2.26.79-1.25,0-2.21-.66-2.21-1.94ZM257.77,87.22c.43,0,.9-.17,1.28-.46v-1.15c-.46,0-.87.01-1.17.05-.63.08-.94.29-.94.8s.3.76.83.76Z"/>
        <path class="cls-2" d="M262.85,82.34h1.42l.26.62c.5-.49,1.12-.79,1.92-.79.37,0,.74.06,1.1.17l-.39,1.57h-.09c-.27-.13-.57-.23-.98-.23-.56,0-.98.18-1.29.51v4.17h-1.95v-6.01Z"/>
        <path class="cls-2" d="M273.91,82.34l.23.56c.59-.48,1.35-.74,2.1-.74,1.74,0,2.47,1.43,2.47,3.12s-.7,3.25-2.74,3.25c-.61,0-1.17-.14-1.64-.41.02.33.03.66.03.97v1.49h-1.95v-8.24h1.5ZM275.47,87.05c.95,0,1.27-.64,1.27-1.75,0-.98-.24-1.61-1.15-1.61-.48,0-.91.17-1.23.48v2.55c.37.23.74.34,1.12.34Z"/>
        <path class="cls-2" d="M280.02,86.59c0-1.14.75-1.88,2.16-2.02.49-.05,1.34-.05,1.91-.05v-.14c0-.69-.61-.83-1.27-.83-.54,0-1.25.1-1.93.3h-.08v-1.34c.68-.22,1.54-.33,2.3-.33,1.77,0,2.91.64,2.91,2.16v4.02h-1.35l-.21-.62c-.57.45-1.35.79-2.26.79-1.25,0-2.21-.66-2.21-1.94ZM282.82,87.22c.43,0,.9-.17,1.28-.46v-1.15c-.46,0-.87.01-1.17.05-.63.08-.94.29-.94.8s.3.76.83.76Z"/>
        <path class="cls-2" d="M287.9,82.34h1.42l.26.62c.5-.49,1.12-.79,1.92-.79.37,0,.74.06,1.1.17l-.39,1.57h-.09c-.27-.13-.57-.23-.98-.23-.56,0-.99.18-1.29.51v4.17h-1.95v-6.01Z"/>
        <path class="cls-2" d="M293.38,86.59c0-1.14.75-1.88,2.16-2.02.49-.05,1.34-.05,1.91-.05v-.14c0-.69-.61-.83-1.27-.83-.54,0-1.25.1-1.93.3h-.08v-1.34c.68-.22,1.54-.33,2.3-.33,1.77,0,2.91.64,2.91,2.16v4.02h-1.35l-.21-.62c-.57.45-1.35.79-2.26.79-1.25,0-2.21-.66-2.21-1.94ZM296.18,87.22c.43,0,.9-.17,1.28-.46v-1.15c-.46,0-.87.01-1.17.05-.63.08-.94.29-.94.8s.3.76.83.76Z"/>
        <path class="cls-2" d="M305.71,86.33v-2.68h-1.04v-1.05l1.04-.26.43-1.74h1.51v1.74h1.63v1.31h-1.63v2.37c0,.84.24,1.05.91,1.05.33,0,.69-.05,1.01-.12h.05v1.41c-.57.11-1.14.17-1.66.17-1.64,0-2.26-.65-2.26-2.2Z"/>
        <path class="cls-2" d="M310.86,85.35c0-1.95,1.34-3.18,3.35-3.18s3.35,1.23,3.35,3.18-1.34,3.18-3.35,3.18-3.35-1.23-3.35-3.18ZM314.21,87.1c.97,0,1.38-.57,1.38-1.75s-.41-1.75-1.38-1.75-1.38.57-1.38,1.75.42,1.75,1.38,1.75Z"/>
        <path class="cls-2" d="M318.93,85.44c0-1.97,1.1-3.28,2.93-3.28.54,0,1.04.12,1.46.29-.03-.38-.04-.76-.04-1.07v-1.45h1.95v8.42h-1.63l-.15-.57c-.52.49-1.21.75-1.95.75-1.66,0-2.56-1.33-2.56-3.08ZM322.15,87.15c.47,0,.83-.16,1.12-.42v-2.95c-.29-.13-.62-.21-.96-.21-1.14,0-1.42.81-1.42,1.86s.26,1.72,1.25,1.72Z"/>
        <path class="cls-2" d="M326.91,85.35c0-1.95,1.34-3.18,3.35-3.18s3.35,1.23,3.35,3.18-1.34,3.18-3.35,3.18-3.35-1.23-3.35-3.18ZM330.27,87.1c.97,0,1.38-.57,1.38-1.75s-.41-1.75-1.38-1.75-1.38.57-1.38,1.75.42,1.75,1.38,1.75Z"/>
        <path class="cls-2" d="M335.14,88.12v-1.44h.08c.72.32,1.67.49,2.39.49.41,0,.9-.05.9-.39,0-.29-.38-.48-.91-.64-1.44-.44-2.51-.8-2.51-2.09,0-1.2.96-1.88,2.66-1.88.64,0,1.55.1,2.26.32v1.4h-.06c-.82-.25-1.59-.36-2.11-.36s-.85.1-.85.4c0,.37.52.56,1.14.75,1.4.42,2.27.81,2.27,2,0,1.53-1.41,1.85-2.83,1.85-.76,0-1.64-.1-2.41-.41Z"/>
      </g>
      <g>
        <path class="cls-2" d="M36.96,19.81l9.54-9.52C38.55,3.63,28.59,0,18.07,0H0v13.37h18.07c7.11,0,13.66,2.41,18.89,6.44"/>
        <path class="cls-2" d="M36.96,68.56c-5.23,4.04-11.78,6.44-18.89,6.44H0v13.37h18.07c10.52,0,20.47-3.63,28.43-10.3l-9.54-9.52Z"/>
        <path class="cls-2" d="M43.68,61.42l9.61,9.59c5.89-7.66,9.09-16.99,9.09-26.81s-3.19-19.15-9.09-26.81l-9.61,9.59c3.34,4.92,5.29,10.85,5.29,17.23s-1.95,12.31-5.29,17.23"/>
        <path class="cls-2" d="M0,23.11h16.54c11.67,0,21.13,9.44,21.13,21.08s-9.46,21.07-21.13,21.07H0"/>
      </g>
    </g>
  </g>
</svg>