<?xml version="1.0" encoding="UTF-8"?>
<svg id="_Слой_1" data-name="Слой 1" xmlns="http://www.w3.org/2000/svg" version="1.1" viewBox="0 0 32 32">
  <defs>
    <style>
      .cls-1 {
        fill: #fff;
        stroke-width: 0px;
      }
    </style>
  </defs>
  <path class="cls-1" d="M9.3,32c-.7,0-1.3-.3-1.8-.7-.5-.5-.7-1.1-.7-1.8s.3-1.3.7-1.8l11.7-11.7L7.5,4.3c-.5-.5-.7-1.1-.7-1.8s.3-1.3.7-1.8S8.6,0,9.3,0s1.3.3,1.8.7l13.5,13.5c.5.5.7,1.1.7,1.8s-.3,1.3-.7,1.8l-13.5,13.5c-.5.5-1.1.7-1.8.7Z"/>
</svg>