<?xml version="1.0" encoding="utf-8"?>
<!-- Generator: Adobe Illustrator 28.3.0, SVG Export Plug-In . SVG Version: 6.00 Build 0)  -->
<svg version="1.1" id="_Слой_1" xmlns="http://www.w3.org/2000/svg" xmlns:xlink="http://www.w3.org/1999/xlink" x="0px"
	 y="0px" viewBox="0 0 32 32" style="enable-background:new 0 0 32 32;" xml:space="preserve">
<style type="text/css">
	.st0{fill:#FFFFFF;}
</style>
<path class="st0" d="M21,31.3L7.5,17.8c-0.4-0.5-0.7-1.1-0.7-1.8c0-0.7,0.2-1.3,0.7-1.8L21,0.7C21.5,0.3,22.1,0,22.8,0
	c0.7,0,1.4,0.2,1.8,0.7s0.7,1.1,0.7,1.8s-0.2,1.3-0.7,1.8L12.9,16l11.7,11.7c0.4,0.5,0.7,1.1,0.7,1.8s-0.2,1.3-0.7,1.8
	c-0.5,0.4-1.1,0.7-1.8,0.7C22.1,32,21.5,31.8,21,31.3z"/>
</svg>
